Coordinates
version=1
nRows=22
nColumns=24
inDegrees=yes

Units are S.I. units (second, meters, Newtons, ...)
Angles are in degrees.

endheader
time	pelvis_tilt	pelvis_list	pelvis_rotation	pelvis_tx	pelvis_ty	pelvis_tz	hip_flexion_r	hip_adduction_r	hip_rotation_r	knee_angle_r	ankle_angle_r	subtalar_angle_r	mtp_angle_r	hip_flexion_l	hip_adduction_l	hip_rotation_l	knee_angle_l	ankle_angle_l	subtalar_angle_l	mtp_angle_l	lumbar_extension	lumbar_bending	lumbar_rotation
      0.94600000	      1.58257097	      2.23343059	     -4.34106145	     -0.18776366	      1.00733796	      0.27651188	    -10.01518059	     -0.24443974	     -1.32955454	    -13.59660579	     12.30150643	     -3.90179065	     12.31373187	     17.67747813	      1.60621750	    -13.61740477	      1.06303353	     -0.97403214	     -0.68560699	      6.24327364	    -12.31036775	     -2.64748338	     10.71701265
      0.95016667	      1.65305199	      2.28418860	     -4.36009792	     -0.18194170	      1.00682564	      0.27610911	    -10.12477635	     -0.36562022	     -1.40083977	    -14.26840529	     12.49303338	     -3.70417876	     12.23403444	     17.51554883	      1.73444738	    -13.30796011	      1.12515333	     -1.04966272	     -0.84063619	      6.35295081	    -12.37199424	     -2.75410994	     10.76930040
      0.95433333	      1.70583197	      2.33279184	     -4.36014082	     -0.17609934	      1.00632261	      0.27569160	    -10.19474674	     -0.47940408	     -1.48450287	    -14.98262833	     12.59597545	     -3.61388931	     12.14858559	     17.38141969	      1.85933789	    -12.96071383	      1.09276335	     -1.14228183	     -1.03628117	      6.49682339	    -12.39550526	     -2.83065679	     10.79587536
      0.95850000	      1.76358098	      2.40012043	     -4.36333051	     -0.17024783	      1.00587816	      0.27528959	    -10.24690555	     -0.61375317	     -1.53821119	    -15.73899531	     12.67336140	     -3.53592456	     12.08130001	     17.24268054	      2.00031191	    -12.58390050	      0.98735621	     -1.27112131	     -1.25013360	      6.65166850	    -12.43800023	     -2.94268854	     10.82096177
      0.96266667	      1.83115693	      2.47260770	     -4.34947315	     -0.16438326	      1.00547914	      0.27486848	    -10.28707698	     -0.75413964	     -1.61963071	    -16.54302554	     12.70106558	     -3.44858932	     12.02748914	     17.10202613	      2.14927280	    -12.16132402	      0.80056469	     -1.43988487	     -1.53733710	      6.84855771	    -12.48833296	     -3.06435238	     10.83968112
      0.96683333	      1.89940154	      2.56445703	     -4.35909930	     -0.15848718	      1.00512795	      0.27446067	    -10.28857908	     -0.92462378	     -1.67860467	    -17.42248511	     12.72604578	     -3.35665568	     12.01249673	     16.94510955	      2.31489502	    -11.73890180	      0.58678876	     -1.62980781	     -1.82553875	      7.00742306	    -12.52294412	     -3.20493635	     10.85237311
      0.97100000	      1.96790671	      2.66284232	     -4.34859824	     -0.15259392	      1.00480686	      0.27402500	    -10.26247618	     -1.10340391	     -1.77006838	    -18.35521422	     12.69566767	     -3.23819307	     12.02649063	     16.79685331	      2.49152013	    -11.26819510	      0.30762803	     -1.86528044	     -2.20011382	      7.18139896	    -12.56799334	     -3.34965890	     10.85899868
      0.97516667	      2.01429184	      2.76195394	     -4.33770270	     -0.14668625	      1.00449630	      0.27357560	    -10.17904113	     -1.28531168	     -1.85969841	    -19.35090037	     12.62244422	     -3.12350319	     12.07296168	     16.67224073	      2.66745819	    -10.77776076	     -0.01476155	     -2.13087889	     -2.61389876	      7.35916307	    -12.58347205	     -3.49991347	     10.85709035
      0.97933333	      2.09420202	      2.88172084	     -4.32846162	     -0.14076694	      1.00426461	      0.27312795	    -10.09862257	     -1.49752565	     -1.96162873	    -20.40838618	     12.51077444	     -2.99755566	     12.14586844	     16.50595727	      2.86779882	    -10.29302174	     -0.35901297	     -2.41197740	     -3.02661608	      7.51890082	    -12.62956348	     -3.68028862	     10.84929096
      0.98350000	      2.17265247	      2.99523141	     -4.29837180	     -0.13487377	      1.00407741	      0.27263114	     -9.98925472	     -1.70553788	     -2.08764116	    -21.51252503	     12.33374641	     -2.83409198	     12.27959497	     16.35865541	      3.06636998	     -9.77625661	     -0.76516461	     -2.74061925	     -3.54783281	      7.71781955	    -12.69432906	     -3.84728080	     10.82875052
      0.98766667	      2.23077325	      3.12785547	     -4.29015717	     -0.12893319	      1.00389413	      0.27214946	     -9.81069634	     -1.94279779	     -2.19957538	    -22.70399469	     12.11357153	     -2.70553770	     12.42602693	     16.21262346	      3.27943251	     -9.30058719	     -1.15661568	     -3.05808965	     -3.99159601	      7.87949715	    -12.70476839	     -4.03305887	     10.79890251
      0.99183333	      2.30017033	      3.25750638	     -4.25983408	     -0.12302121	      1.00375999	      0.27162187	     -9.61641645	     -2.18144816	     -2.34156699	    -23.94293765	     11.83069687	     -2.54593458	     12.62411678	     16.06945292	      3.49481272	     -8.80478447	     -1.59374337	     -3.39766788	     -4.50911503	      8.04763537	    -12.74704884	     -4.21208503	     10.76295866
      0.99600000	      2.39151104	      3.37788719	     -4.19909546	     -0.11712718	      1.00370192	      0.27105476	     -9.43074108	     -2.40724701	     -2.49878034	    -25.20150381	     11.43658225	     -2.43045879	     13.09692330	     15.90193682	      3.71129674	     -8.23091594	     -2.04736511	     -3.71662752	     -5.12889913	      8.36891602	    -12.82443833	     -4.38693465	     10.71694092
      1.00016667	      2.43266120	      3.52539455	     -4.18542595	     -0.11123919	      1.00359968	      0.27052312	     -9.11845586	     -2.67895510	     -2.62383943	    -26.58615783	     11.08141925	     -2.24659184	     13.39883442	     15.80780005	      3.93096030	     -7.87973717	     -2.54672707	     -4.08045913	     -5.53584555	      8.53092516	    -12.83684732	     -4.59335380	     10.65508061
      1.00433333	      2.49771908	      3.68318406	     -4.16201140	     -0.10532721	      1.00356676	      0.26995191	     -8.80496822	     -2.97212391	     -2.77734767	    -28.01314995	     10.61838098	     -2.10978695	     13.71126954	     15.65857481	      4.17177215	     -7.46830727	     -2.99654967	     -4.41168693	     -6.01358722	      8.66595898	    -12.85739575	     -4.79295863	     10.58434837
      1.00850000	      2.56068053	      3.83473782	     -4.11658380	     -0.09945969	      1.00356020	      0.26934624	     -8.46240078	     -3.25838893	     -2.93964591	    -29.47914536	     10.09515716	     -1.97094896	     14.10267057	     15.53139743	      4.40730890	     -7.05977081	     -3.49430982	     -4.72190390	     -6.51537246	      8.80197144	    -12.89549562	     -4.99687431	     10.50257347
      1.01266667	      2.64772119	      3.99350968	     -4.06506437	     -0.09359443	      1.00362613	      0.26874059	     -8.12466942	     -3.55521233	     -3.09500981	    -30.96177442	      9.42096499	     -2.00924961	     19.18080221	     15.37662943	      4.64856491	     -6.69032435	     -3.99611404	     -4.97892723	     -6.92412485	     10.23950633	    -12.96821642	     -5.21909954	     10.40836605
      1.01683333	      2.69789556	      4.16387938	     -4.03603413	     -0.08774918	      1.00366889	      0.26812696	     -7.69365864	     -3.87862822	     -3.24143101	    -32.53393994	      8.78345412	     -1.87055748	     19.21924476	     15.26517808	      4.89066697	     -6.42181600	     -4.50783753	     -5.22375624	     -7.26433688	     10.24358458	    -12.98762252	     -5.43664122	     10.33626391
      1.02100000	      2.75243444	      4.33641103	     -3.99461788	     -0.08193876	      1.00373328	      0.26749983	     -7.23878028	     -4.20523199	     -3.38746859	    -34.14516516	      8.10965501	     -1.79006290	     19.29294009	     15.14230468	      5.13773148	     -6.12359285	     -5.00829902	     -5.43450682	     -7.63980493	     10.23985613	    -13.01966695	     -5.66369913	     10.23505447
      1.02516667	      2.80834020	      4.51890016	     -3.95349648	     -0.07614200	      1.00383373	      0.26686695	     -6.75910496	     -4.54609196	     -3.52184696	    -35.78486461	      7.39208274	     -1.74274264	     19.39160964	     15.01249070	      5.39348711	     -5.84809985	     -5.50219330	     -5.60598664	     -7.97969198	     10.22757058	    -13.05980080	     -5.89324035	     10.12799574
      1.02933333	      2.85539838	      4.70007999	     -3.90798625	     -0.07038533	      1.00393911	      0.26621603	     -6.24102760	     -4.88976143	     -3.65732577	    -37.45568569	      6.64691494	     -1.73388197	     19.51197219	     14.89169711	      5.64617954	     -5.59887861	     -5.99446693	     -5.73442524	     -8.30103746	     10.20556097	    -13.08741010	     -6.12391099	     10.01029238
      1.03350000	      2.91150951	      4.89558615	     -3.86912640	     -0.06465335	      1.00408155	      0.26557439	     -5.70780871	     -5.25237034	     -3.77280835	    -39.14633400	      5.88881786	     -1.75961929	     19.63409118	     14.75319590	      5.91126409	     -5.37805475	     -6.47200795	     -5.82866279	     -8.57399495	     10.17607798	    -13.12822157	     -6.36933109	      9.88878461
